<?xml version="1.0" encoding="utf-8"?>
<!-- Generator: Adobe Illustrator 24.3.0, SVG Export Plug-In . SVG Version: 6.00 Build 0)  -->
<svg version="1.1" xmlns="http://www.w3.org/2000/svg" xmlns:xlink="http://www.w3.org/1999/xlink" x="0px" y="0px"
	 viewBox="0 0 1000 1000" style="enable-background:new 0 0 1000 1000;" xml:space="preserve">
<style type="text/css">
	.st0{fill:#5A3B5B;stroke:#1E1231;stroke-width:29;stroke-miterlimit:10;}
	.st1{fill:url(#SVGID_1_);}
	.st2{fill:#D3BFDE;}
	.st3{fill:none;}
	.st4{fill:#D3BFDE;stroke:#9E8AAD;stroke-width:2;stroke-miterlimit:10;}
	.st5{font-family:'SegoePrint';}
	.st6{font-size:200px;}
	.st7{fill:url(#SVGID_2_);}
	.st8{fill:url(#SVGID_3_);}
	.st9{fill:url(#SVGID_4_);}
	.st10{fill:url(#SVGID_5_);}
	.st11{fill:url(#SVGID_6_);}
	.st12{fill:url(#SVGID_7_);}
	.st13{fill:url(#SVGID_8_);}
	.st14{fill:url(#SVGID_9_);}
</style>
<g id="Слой_4">
	<circle class="st0" cx="516.26" cy="459.8" r="397"/>
</g>
<g id="Слой_3">
	<g>
		<linearGradient id="SVGID_1_" gradientUnits="userSpaceOnUse" x1="501.5265" y1="849.2778" x2="501.5265" y2="177.9977">
			<stop  offset="0.2647" style="stop-color:#5E3659"/>
			<stop  offset="0.5503" style="stop-color:#906B8C"/>
			<stop  offset="0.9681" style="stop-color:#EFD4E8"/>
		</linearGradient>
		<path class="st1" d="M516.59,695.2c-8.29-2.69-20.78-5.52-35.41-3.73c-19.72,2.41-25.35,11.01-41.01,12.12
			c-15.49,1.09-26.71-6.15-47.53-19.57c-26.23-16.91-43.15-27.83-52.19-49.39c-10.58-25.23-4.22-50.37-0.93-63.37
			c9.53-37.71,29.17-44.18,25.16-65.24c-2.81-14.73-13-14.65-37.28-43.8c-21.37-25.67-32.82-39.41-31.69-56.85
			c1.74-26.9,32.28-45.45,50.32-52.19c9.04-3.37,34.86-13.01,53.12-0.93c15.86,10.5,14.51,29.78,30.75,34.48
			c6.19,1.79,16.41,1.89,22.37-3.73c14.83-14-13.73-47.48-13.05-101.58c0.24-18.94,0.64-50.42,22.37-70.83
			c24.77-23.26,67.34-22.8,96.92-6.52c24.41,13.43,50.04,43.16,44.73,68.03c-4.13,19.35-25.17,27.21-23.3,48.46
			c0.19,2.15,1.29,12.05,8.39,19.57c18.08,19.14,49.97-3.74,79.22,9.32c28.9,12.9,48.08,57.72,36.35,83.87
			c-12.89,28.72-54.98,16.9-74.56,51.26c-11.34,19.9-10.45,47.08-0.93,66.17c12.31,24.67,31.5,20.68,44.73,45.67
			c10.56,19.94,11.64,47.59,0,68.96c-16.56,30.41-52.54,36.5-73.62,40.07C562.57,711.71,532.12,701.72,516.59,695.2z"/>
		<g>
			<path class="st2" d="M517.92,690.38c-16.58-5.32-35.12-6.37-51.73-0.59c-6.48,2.25-12.07,5.48-18.39,7.36
				c-6.07,1.8-12.65,2.01-18.33,0.69c-6.77-1.57-12.79-4.82-18.77-8.36c-8.17-4.84-16.1-10.1-24.05-15.29
				c-12.35-8.07-25.56-16.57-34.36-28.67c-10.35-14.24-13.76-31.83-12.36-49.17c0.58-7.19,2.04-14.26,3.78-21.26
				c1.93-7.78,4.31-15.42,7.77-22.67c4.94-10.35,12.58-19.42,16.7-30.14c3.33-8.66,2.64-19.49-2.51-27.35
				c-2.33-3.56-5.4-6.52-8.52-9.38c-4.46-4.08-8.94-8.13-13.19-12.44c-6.69-6.79-12.78-14.1-18.85-21.44
				c-5.29-6.4-10.6-12.83-15.25-19.72c-3.53-5.23-6.49-10.33-8.08-16.03c-0.87-3.1-1.08-4.39-1.14-7.45
				c-0.07-3.07,0.27-5.89,1.03-8.84c3.41-13.12,14.01-23.38,24.96-30.76c10.08-6.79,19.91-11.17,31.41-14.47
				c13.29-3.82,30.12-5.78,41.29,4.25c10.02,8.99,11.99,24.92,24.79,31.15c11.98,5.82,30.9,3.77,36.15-10.14
				c3.33-8.82-0.08-19.33-2.62-27.9c-4-13.52-8.39-26.88-10.93-40.78c-2.72-14.93-3-30.17-1.99-45.29
				c0.95-14.24,3.87-28.8,11.66-41.05c16.84-26.49,52.18-31.64,80.48-23.91c15.26,4.17,28.83,12.37,40.15,23.38
				c10.48,10.2,21.08,24.14,21.87,39.29c0.35,6.69-1.53,12.56-5.12,18.16c-3.52,5.48-7.97,10.13-11.78,15.57
				c-4.04,5.76-6.77,12.26-7.13,19.35c-0.32,6.22,1.26,12.51,3.82,18.13c3.37,7.4,9.38,13.27,16.95,16.23
				c6.68,2.61,14.15,2.59,21.19,1.98c15.69-1.35,31.9-5.39,47.16,0.52c12.29,4.77,21.78,15.52,28.24,26.77
				c6.63,11.54,10.77,24.87,10.11,38.04c-0.57,11.34-5.65,20.67-15.4,26.22c-5.16,2.93-9.83,4.51-15.66,6.48
				c-6.02,2.04-12.03,4.06-17.86,6.61c-13.42,5.86-24.5,15.63-30.67,29.07c-7.3,15.92-8.43,34.32-4.31,51.26
				c1.97,8.11,5.26,16.22,10.2,22.99c4.46,6.1,10.01,10.83,16.26,15.01c5.47,3.67,11.05,6.99,15.69,11.69
				c5.62,5.69,9.56,12.89,12.09,20.44c5.38,15.99,5.27,34.21-1.36,49.84c-5.81,13.7-16.62,23.92-29.74,30.59
				c-11.23,5.71-23.78,8.76-36.19,11.03c-16.54,3.02-33.2,4.11-49.9,1.6C542.58,699.04,529.96,695.41,517.92,690.38
				c-2.49-1.04-5.5,1.12-6.15,3.49c-0.79,2.88,0.99,5.1,3.49,6.15c12.99,5.43,26.6,9.14,40.56,11.02
				c17.76,2.38,35.18,1.13,52.75-2.11c28.07-5.17,57.26-16.54,70.39-43.91c7.97-16.61,9.49-35.91,5.12-53.75
				c-2.08-8.5-5.59-16.95-10.73-24.06c-4.67-6.46-10.5-11.49-17.09-15.91c-5.54-3.72-11.1-6.99-15.72-11.78
				c-5.47-5.66-9.07-12.89-11.34-20.37c-4.75-15.61-4.49-33.77,2.69-48.63c3.16-6.53,7.63-12.42,13.29-16.83
				c4.77-3.72,10.79-6.68,16.13-8.76c11.37-4.42,24.02-7,34.15-14.12c24.51-17.21,18.62-52.18,5.91-74.9
				c-6.9-12.34-17.04-23.91-29.92-30.16c-15.94-7.74-32.85-5.4-49.77-3.44c-6.82,0.79-14.13,1.57-20.54-0.19
				c-6.36-1.74-11.32-6.61-13.97-12.98c-0.63-1.51-1.1-3.11-1.49-4.7c-0.16-0.66-0.3-1.32-0.43-1.98c-0.08-0.41-0.31-2.55-0.17-0.96
				c-0.24-2.8-0.34-5.48,0.22-8.08c1.32-6.03,5.12-11.19,8.91-15.93c4.39-5.48,8.9-10.91,11.68-17.43
				c3.13-7.33,3.69-15.12,2.28-22.94c-2.95-16.35-14.12-30.96-26.03-41.99c-12.15-11.25-26.56-19.7-42.57-24.07
				c-15.7-4.28-32.57-4.98-48.46-1.27c-16,3.74-30.44,12.4-40.39,25.56c-9.59,12.69-13.73,28.42-15.41,44.01
				c-1.61,14.97-1.58,30.39,0.41,45.3c2.04,15.3,6.28,30,10.8,44.71c1.65,5.37,3.35,10.76,4.42,16.28c0.11,0.56,0.2,1.12,0.3,1.68
				c0.05,0.27,0.09,0.55,0.13,0.82c-0.03-0.17-0.12-1.07-0.02-0.13c0.11,1.01,0.2,2.03,0.23,3.05c0.02,0.95-0.07,1.88-0.08,2.83
				c-0.01,0.87,0.03-0.18,0.06-0.33c-0.04,0.21-0.06,0.44-0.11,0.65c-0.12,0.52-0.22,1.05-0.37,1.57c-0.12,0.4-0.27,0.79-0.41,1.19
				c0.36-1.01,0.14-0.29-0.15,0.22c-0.21,0.36-0.43,0.71-0.65,1.07c-0.63,1.05,0.43-0.31-0.29,0.36c-2.35,2.16-4.74,3.4-7.95,3.93
				c-6.04,0.98-12.68-0.38-16.79-4.46c-4.22-4.19-6.76-10.63-10.02-16.01c-4.21-6.97-9.88-13.07-17.36-16.55
				c-14.46-6.73-31.14-4.41-45.83,0.37c-11.82,3.85-23.14,9.2-33.19,16.55c-11.92,8.72-22.95,20.37-26.52,35.12
				c-3.26,13.46,0.79,26.15,8.1,37.5c4.56,7.09,9.9,13.68,15.23,20.19c6.35,7.77,12.71,15.55,19.66,22.81
				c4.5,4.7,9.26,9.11,14.07,13.48c1.66,1.51,3.32,3.02,4.89,4.62c0.66,0.67,1.3,1.35,1.91,2.06c0.11,0.13,1.04,1.28,0.56,0.65
				c-0.44-0.57,0.42,0.59,0.56,0.8c0.48,0.71,0.92,1.44,1.31,2.2c0.2,0.39,0.38,0.78,0.56,1.17c-0.51-1.11,0.01,0.06,0.16,0.53
				c0.31,0.91,0.56,1.84,0.77,2.78c0.12,0.56,0.23,1.12,0.33,1.68c0.02,0.13,0.16,1.14,0.08,0.53c-0.07-0.61,0.05,0.62,0.06,0.74
				c0.08,1.18,0.11,2.36,0.04,3.54c-0.02,0.32-0.19,1.91-0.03,0.77c-0.1,0.68-0.23,1.36-0.38,2.03c-0.23,1-0.52,1.99-0.86,2.96
				c-0.07,0.2-0.61,1.62-0.42,1.15c0.14-0.35-0.45,1-0.61,1.33c-2.31,4.82-5.37,9.26-8.16,13.81c-3.76,6.12-7.05,12.44-9.79,19.09
				c-6.09,14.77-9.83,31.64-10.28,47.61c-0.51,18.01,4.3,36.31,15.36,50.71c9.94,12.94,23.79,22.13,37.32,30.94
				c8.03,5.24,16.04,10.57,24.32,15.4c6.31,3.68,13.02,7.13,20.18,8.79c7.18,1.67,14.74,1.58,21.89-0.21
				c6.39-1.6,12.34-4.91,18.29-7.16c15.59-5.91,32.57-5.12,48.27-0.09C521.4,701.99,524.03,692.34,517.92,690.38z"/>
		</g>
	</g>
	<g id="Слой_5">
		<rect x="403.87" y="363.34" class="st3" width="303.55" height="298.14"/>
		<text transform="matrix(1 0 0 1 403.8657 529.5475)" class="st4 st5 st6">Д</text>
	</g>
	<g>
		<linearGradient id="SVGID_2_" gradientUnits="userSpaceOnUse" x1="497.8162" y1="595.6052" x2="567.9827" y2="595.6052">
			<stop  offset="0" style="stop-color:#492844"/>
			<stop  offset="1" style="stop-color:#9D6091"/>
		</linearGradient>
		<path class="st7" d="M506.44,639.28c9.92,1.53,17.44,2.23,20.38,2.07c1.04-0.06,2.26-0.22,3.33-1.02
			c0.99-0.73,1.59-1.93,2.23-3.04c2.18-3.77,5.15-6.87,8.09-9.94c8.5-8.87,17.01-17.73,25.51-26.6c0.73-0.77,1.5-1.58,1.82-2.63
			c0.92-2.96-1.87-5.59-4.26-7.26c-13.33-9.28-25.82-20.04-37.22-32.07c-5.31-5.61-7.46-8.55-11.86-8.92
			c-7.01-0.59-13.16,6.32-16.64,11.05"/>
		<g>
			<path class="st2" d="M506.04,640.73c5.72,0.86,11.47,1.72,17.25,2.05c3.41,0.2,6.65,0.24,9.03-2.56
				c2.19-2.58,3.65-5.72,5.94-8.31c2.55-2.89,5.31-5.62,7.98-8.4c5.59-5.83,11.19-11.67,16.78-17.5c3.05-3.18,8.05-6.73,5.8-11.66
				c-0.94-2.06-2.74-3.47-4.52-4.79c-3.53-2.63-7.14-5.13-10.6-7.84c-5.98-4.68-11.73-9.67-17.23-14.9
				c-5.11-4.86-9.63-10.46-14.91-15.12c-9.21-8.13-19.22,0.73-25.03,8.46c-1.16,1.54,1.44,3.04,2.59,1.51
				c3.69-4.91,10.02-12.25,16.99-9.96c2.75,0.9,4.83,3.52,6.74,5.55c2.49,2.64,4.98,5.28,7.56,7.84
				c10.08,10.02,21.11,18.48,32.39,27.04c2.8,2.13,4.45,3.44,2.13,7.53c-0.87,1.53-2.83,2.95-4.03,4.2c-2.69,2.8-5.37,5.6-8.06,8.4
				c-5.21,5.43-10.53,10.78-15.63,16.32c-3.6,3.91-6.44,10.88-12.11,11.25c-5.89,0.39-12.5-1.15-18.26-2.02
				C504.95,637.55,504.14,640.44,506.04,640.73L506.04,640.73z"/>
		</g>
	</g>
	<g>
		<linearGradient id="SVGID_3_" gradientUnits="userSpaceOnUse" x1="428.812" y1="601.8336" x2="515.344" y2="601.8336">
			<stop  offset="0" style="stop-color:#492844"/>
			<stop  offset="1" style="stop-color:#9D6091"/>
		</linearGradient>
		<path class="st8" d="M497.82,560.92c-0.8-1.74-2.37-4.56-5.33-6.75c-8.1-5.97-19.83-2.07-27.85,0.29
			c-4.84,1.42-9.71,3.24-13.67,6.63c-4.5,3.85-7.49,9.41-10.38,14.83c-3.38,6.36-6.76,12.71-10.15,19.07
			c-0.88,1.65-1.78,3.44-1.59,5.34c0.21,2.11,1.71,3.73,3.12,5.16c15.3,15.52,31.02,30.54,46.73,45.56c0.8,0.77,1.7,1.57,2.76,1.6
			c0.81,0.02,1.56-0.42,2.26-0.85c10.55-6.39,21.09-12.78,31.64-19.18c-1.1-3.79-2.21-7.58-3.31-11.36"/>
		<g>
			<path class="st2" d="M499.11,560.17c-5.64-11.63-17.92-11.76-28.98-8.84c-6.39,1.69-13.15,3.48-18.57,7.4
				c-5.66,4.1-9.05,10.41-12.27,16.44c-3.71,6.93-8.42,14-11.22,21.34c-2.48,6.5,3.44,10.68,7.58,14.82
				c12.42,12.46,25.11,24.65,37.83,36.81c2,1.92,4.7,5.78,7.78,5.99c2.82,0.19,5.97-2.69,8.21-4.05
				c8.88-5.38,17.76-10.77,26.64-16.15c0.56-0.34,0.88-1.05,0.69-1.69c-1.1-3.79-2.21-7.58-3.31-11.36
				c-0.54-1.85-3.43-1.06-2.89,0.8c1.1,3.79,2.21,7.58,3.31,11.36c0.23-0.56,0.46-1.13,0.69-1.69c-7.77,4.71-15.54,9.42-23.31,14.13
				c-3.12,1.89-7.67,6.36-11.53,4.53c-1.7-0.81-3.47-3.32-4.85-4.64c-1.62-1.55-3.23-3.09-4.85-4.64
				c-12.24-11.73-24.52-23.45-36.35-35.6c-2.64-2.71-3.75-5.8-1.97-9.37c0.87-1.76,1.85-3.47,2.77-5.2
				c2.15-4.04,4.3-8.09,6.46-12.13c3.85-7.23,7.59-14.74,15-18.93c5.86-3.32,13.4-5.24,20.02-6.41c8.46-1.5,16.55,0.34,20.56,8.61
				C497.36,563.42,499.95,561.9,499.11,560.17L499.11,560.17z"/>
		</g>
	</g>
	<g>
		<linearGradient id="SVGID_4_" gradientUnits="userSpaceOnUse" x1="446.3566" y1="594.3077" x2="533.654" y2="594.3077">
			<stop  offset="0" style="stop-color:#492844"/>
			<stop  offset="1" style="stop-color:#9D6091"/>
		</linearGradient>
		<path class="st9" d="M513.41,580.76c-0.76-0.93-13.11-15.96-15.6-19.83c-0.21-0.32-0.9-1.42-2.04-1.62
			c-0.78-0.13-1.53,0.29-2.22,0.7c-14.59,8.68-29.19,17.37-43.78,26.05c-1.49,0.89-3.15,2.03-3.39,3.88
			c-0.14,1.05,0.24,2.09,0.61,3.06c4.89,12.59,12.38,23.93,21.73,32.91c1.54,1.48,3.23,2.95,5.24,3.32c1.62,0.3,3.28-0.15,4.88-0.59
			c7.75-2.16,25.49-7.7,33.98-9.45c1.63-0.34,4.81-0.95,8.92-2.48c4.8-1.78,7.55-2.81,9.46-5.16c3.33-4.1,2.82-10.62,1.08-15.01
			C528.83,587.82,521.97,591.18,513.41,580.76z"/>
		<g>
			<path class="st2" d="M514.47,579.69c-3.46-4.22-6.9-8.45-10.28-12.74c-2.41-3.06-5.58-10.24-10.32-8.79
				c-2.42,0.74-4.81,2.77-6.97,4.06c-2.53,1.5-5.05,3.01-7.58,4.51c-5.61,3.34-11.23,6.68-16.84,10.02
				c-4.76,2.83-10.22,5.33-14.59,8.73c-2.92,2.27-3.39,4.45-2.34,7.92c2.8,9.28,8.89,18.34,14.95,25.78
				c2.83,3.47,6.09,7.67,9.92,10.11c3.53,2.25,6.85,1.37,10.64,0.3c8.14-2.31,16.21-4.84,24.38-7.03
				c7.51-2.02,15.32-3.18,22.37-6.66c7.61-3.75,8.88-12.72,5.78-20.11c-1.37-3.28-3.62-5.46-6.72-7.13
				C522.1,586.1,518.1,583.89,514.47,579.69c-1.27-1.46-3.38,0.67-2.12,2.12c2.13,2.46,4.43,4.66,7.19,6.4
				c2.39,1.5,5.14,2.39,7.47,3.97c7,4.77,7.09,17.33-0.72,21.12c-6.08,2.95-12.69,4.04-19.17,5.7c-6.5,1.67-12.94,3.59-19.37,5.49
				c-2.8,0.83-5.6,1.67-8.42,2.46c-6.14,1.71-9.79-2.12-13.5-6.18c-5.87-6.43-10.72-13.75-14.51-21.59
				c-0.99-2.06-2.52-4.35-2.87-6.58c-0.63-3.98,1.69-5.01,4.61-6.75c4.21-2.5,8.42-5.01,12.63-7.51
				c8.42-5.01,16.84-10.02,25.26-15.03c2.2-1.31,3.88-2.85,6.03-0.96c0.7,0.62,1.22,1.68,1.78,2.44c1.64,2.18,3.34,4.33,5.04,6.46
				c2.82,3.55,5.68,7.06,8.55,10.57C513.58,583.31,515.69,581.18,514.47,579.69z"/>
		</g>
	</g>
	<g>
		<linearGradient id="SVGID_5_" gradientUnits="userSpaceOnUse" x1="474.2625" y1="588.2526" x2="516.2585" y2="588.2526">
			<stop  offset="0" style="stop-color:#492844"/>
			<stop  offset="1" style="stop-color:#9D6091"/>
		</linearGradient>
		<path class="st10" d="M498.04,574.7c-10.56-3.22-22.7,20.94-23.53,22.93c-0.13,0.31-0.37,1.06-0.15,1.84
			c0.3,1.09,1.47,1.51,2.48,1.74c13.56,3,28.32-1.74,38.32-12.29c0.55-0.58,1.13-1.28,1.1-2.12c-0.03-1.07-1.02-1.83-1.5-2.18
			c-3.61-2.71-8.98-5.07-12.62-7.21C498.71,575.4,499.44,575.13,498.04,574.7z"/>
		<g>
			<path class="st2" d="M498.44,573.26c-8.78-2.12-15.73,7.82-19.85,14.1c-1.86,2.84-4.17,6.09-5.29,9.33
				c-1.47,4.26,1.48,5.75,5.33,6.37c13.08,2.12,27.19-2.53,36.51-11.97c4-4.06,2.5-6.56-1.96-9.35c-2.94-1.84-6.11-3.27-9.13-4.97
				C502.13,575.69,500.48,574.03,498.44,573.26c-1.81-0.68-2.59,2.21-0.8,2.89c3.13,1.19,6.36,3.99,9.39,5.59
				c1.9,1.01,4.22,1.93,5.84,3.37c2.73,2.43,0.16,3.99-2.15,5.94c-8.1,6.84-18.92,10.43-29.5,9.36c-1.81-0.18-5.27-0.21-5.14-2.63
				c0.03-0.62,0.77-1.55,1.07-2.1c1.31-2.48,2.75-4.9,4.31-7.24c3.19-4.79,9.3-13.96,16.18-12.29
				C499.51,576.6,500.31,573.71,498.44,573.26z"/>
		</g>
	</g>
	<g>
		<linearGradient id="SVGID_6_" gradientUnits="userSpaceOnUse" x1="708.947" y1="849.2778" x2="708.947" y2="177.9977">
			<stop  offset="0.4655" style="stop-color:#5E3659"/>
			<stop  offset="0.5202" style="stop-color:#906B8C"/>
			<stop  offset="0.6001" style="stop-color:#EFD4E8"/>
		</linearGradient>
		<path class="st11" d="M668.69,530.24c-5.35-13.72,3.39-30.7,14.91-39.14c15.57-11.4,39.57-9.68,54.05,4.66
			c14.62,14.48,17.9,40.19,5.59,53.12c-15.3,16.08-45.36,2.56-53.12-0.93C681.98,544.28,672.51,540.02,668.69,530.24z"/>
		<g>
			<path class="st2" d="M671.58,529.45c-5.84-16.47,7.1-34.98,22.51-40.54c15.21-5.5,33.3-0.86,43.77,11.5
				c9.28,10.94,13.84,29.16,6.33,42.22c-7.75,13.46-24.75,12.08-37.63,8.35c-12.56-3.63-29.8-9.48-35.27-22.24
				c-1.52-3.54-6.69-0.49-5.18,3.03c6.02,14.05,24.03,20.51,37.76,24.67c15.05,4.56,34.14,5.7,44.23-8.78
				c9.86-14.16,6.15-34.9-3.4-48.19c-11.04-15.36-31.37-22.29-49.58-17.17c-19.57,5.5-36.63,28.14-29.32,48.75
				C667.08,534.65,672.88,533.1,671.58,529.45z"/>
		</g>
	</g>
	<g>
		<linearGradient id="SVGID_7_" gradientUnits="userSpaceOnUse" x1="354.5924" y1="849.2778" x2="354.5924" y2="177.9977">
			<stop  offset="0.8378" style="stop-color:#5E3659"/>
			<stop  offset="0.8839" style="stop-color:#906B8C"/>
			<stop  offset="0.9514" style="stop-color:#EFD4E8"/>
		</linearGradient>
		<path class="st12" d="M369.34,289.8c13.87-4.25,24.4-20.3,23.3-36.35c-1.35-19.64-19.87-35.38-37.28-34.48
			c-15.07,0.78-24.64,13.78-28.89,19.57c-4.58,6.24-12.36,16.82-9.32,27.96c3.74,13.67,21.23,18.88,29.82,21.43
			C354.48,290.17,361.41,292.23,369.34,289.8z"/>
		<g>
			<path class="st2" d="M370.14,292.69c16.55-5.55,27.18-23.46,25.37-40.67c-1.72-16.34-14.51-30.95-30.43-35.01
				c-16.16-4.12-29.74,5.01-39.21,17.36c-9.44,12.31-18.55,28.82-6.21,42.57c5.31,5.91,12.9,9.37,20.28,11.92
				C349.68,292.23,359.87,295.43,370.14,292.69c3.73-0.99,2.15-6.78-1.6-5.79c-8.16,2.18-15.89-0.31-23.69-2.75
				c-5.09-1.59-10.1-3.46-14.65-6.28c-5.75-3.57-10.6-8.99-10.74-16.1c-0.15-7.39,4.06-14.03,8.21-19.82
				c6.98-9.73,15.98-19.94,28.96-20.02c13.83-0.08,26.73,10.6,31.24,23.32c5.67,16.02-2.86,36.12-19.33,41.65
				C364.9,288.13,366.46,293.93,370.14,292.69z"/>
		</g>
	</g>
	<g>
		<linearGradient id="SVGID_8_" gradientUnits="userSpaceOnUse" x1="657.6138" y1="849.2778" x2="657.6138" y2="177.9977">
			<stop  offset="0.2647" style="stop-color:#5E3659"/>
			<stop  offset="0.5503" style="stop-color:#906B8C"/>
			<stop  offset="0.9681" style="stop-color:#EFD4E8"/>
		</linearGradient>
		<path class="st13" d="M644.26,298.19c-6.03-7.67,1.17-26.87,12.12-27.96c7.18-0.71,16.78,6.28,16.77,15.84
			c-0.01,9.13-8.77,14.87-15.84,15.84C656.34,302.05,648.1,303.07,644.26,298.19z"/>
		<g>
			<path class="st2" d="M646.85,296.68c-3.48-4.94-1.44-12.17,1.45-16.92c3.75-6.17,9.95-8.56,16.18-4.01
				c7.58,5.54,7.12,15.62-0.7,20.64c-4.87,3.12-13.09,4.4-17.4-0.31c-2.61-2.86-6.85,1.4-4.24,4.24c6.49,7.1,18.5,5.61,25.74,0.54
				c9.69-6.78,10.97-20.08,2.17-28.26c-7.68-7.12-18.28-7.03-24.92,1.26c-5.34,6.67-8.84,18.23-3.46,25.85
				C643.88,302.83,649.09,299.84,646.85,296.68z"/>
		</g>
	</g>
	<g>
		<linearGradient id="SVGID_9_" gradientUnits="userSpaceOnUse" x1="295.6418" y1="849.2778" x2="295.6418" y2="177.9977">
			<stop  offset="0.2647" style="stop-color:#5E3659"/>
			<stop  offset="0.5503" style="stop-color:#906B8C"/>
			<stop  offset="0.9681" style="stop-color:#EFD4E8"/>
		</linearGradient>
		<path class="st14" d="M303.4,513.38c8.52,3.66,12.83,17.49,7.35,26.95c-6.22,10.74-22.94,12.16-29.39,5.39
			c-7.12-7.48-1.86-25.13,8.68-30.99C291.27,514.04,297.43,510.81,303.4,513.38z"/>
		<g>
			<path class="st2" d="M301.89,515.97c7.78,3.78,10.46,14.79,6.58,22.27c-3.61,6.95-13.02,10.17-20.38,7.98
				c-16.71-4.98-1.54-35.49,14.52-29.94c3.66,1.26,5.23-4.53,1.6-5.79c-22.5-7.77-42.29,33.03-18.7,41.2
				c10.33,3.58,23.52-1.04,28.45-11c4.99-10.09,1.47-24.79-9.03-29.9C301.46,509.11,298.41,514.28,301.89,515.97z"/>
		</g>
	</g>
</g>
</svg>
